<svg id="Layer_1" data-name="Layer 1" xmlns="http://www.w3.org/2000/svg" viewBox="0 0 213.491 257.185"><title>logo</title><path d="M185.5.626H.626V229.2A27.465,27.465,0,0,0,28,256.568H212.854V27.991A27.474,27.474,0,0,0,185.5.626" style="fill:#fff;fill-rule:evenodd"/><path d="M10.94,10.911H185.329a17.307,17.307,0,0,1,17.242,17.256V186.323H10.94V10.911" style="fill:#25346b;fill-rule:evenodd"/><path d="M94.845,163.2V106.367c0-17.123,20.858-21.1,23.578-2.14,2.24,15.462-12.139,42.209-22.106,59.307-.56.97-1.472.831-1.472-.333m0-122.233V34.2h-.02V31.1A3.7,3.7,0,0,0,91.2,27.292H37.787a3.66,3.66,0,0,0-3.642,3.644V166.859a3.709,3.709,0,0,0,3.642,3.68h131.2c2.076,0,2.881-1.015,2.518-3.083l-.937-5.409c-2.57-14.78,13.528-42.739,12.3-71.865-.88-21.9-14.132-40.276-33.268-50A59.327,59.327,0,0,0,94.845,40.967Z" style="fill:#fff;fill-rule:evenodd"/><path d="M41.431,41.959H87.648V55.186a51.6,51.6,0,0,1,35.3-14.122c22.35-.126,43.957,15.258,50.584,36.731,9.466,30.579-13.53,64.843-9.988,85.541H104.927c16.061-27.2,22.363-48.111,20.744-59.932-2.585-18.994-19.442-23.77-31.04-13.931-6.185,5.251-6.983,11.669-6.983,19.316v54.547H41.431V41.959" style="fill:#e4272d;fill-rule:evenodd"/><path d="M165.015,212.386l2.672-17.615.664-.6h4.684l.467.323,3.575,9.422c.107-1.174.273-2.352.457-3.54l.845-5.608.693-.6h4.106l.5.6-2.683,17.635-.664.562h-4.621l-.453-.328-3.632-9.506c-.05,1.134-.288,2.307-.462,3.51l-.865,5.763-.7.562H165.51l-.5-.581" style="fill:#25346b;fill-rule:evenodd"/><path d="M13.175,212.386l2.689-17.64.676-.592h4.688l.47.338,3.584,9.4c.08-1.163.278-2.337.453-3.519l.845-5.623.666-.592h4.114l.5.592-2.67,17.64-.681.552H23.9l-.455-.309L19.824,203.1c-.092,1.144-.31,2.316-.477,3.489l-.873,5.793-.666.552H13.68l-.5-.552" style="fill:#25346b;fill-rule:evenodd"/><path d="M95.155,212.386l2.675-17.64.666-.592h4.684l.475.338,3.562,9.4c.1-1.163.286-2.337.462-3.519l.846-5.623.688-.592h4.109l.5.592-2.662,17.64-.686.552h-4.6l-.467-.309L101.79,203.1c-.1,1.144-.316,2.316-.48,3.489l-.885,5.793-.691.552h-4.08l-.5-.552" style="fill:#25346b;fill-rule:evenodd"/><polyline points="33.305 212.386 35.977 194.746 36.656 194.154 41.481 194.154 41.956 194.746 39.298 212.386 38.62 212.938 33.795 212.938 33.305 212.386" style="fill:#25346b;fill-rule:evenodd"/><polyline points="154.945 212.386 157.612 194.77 158.301 194.174 163.121 194.174 163.63 194.77 160.953 212.405 160.284 212.967 155.459 212.967 154.945 212.386" style="fill:#25346b;fill-rule:evenodd"/><path d="M43.413,212.386l2.662-17.615.666-.587H53.5c2.036,0,3.528.477,4.455,1.512,1.909,2.078,1.181,6.533-1.3,8.645a6.765,6.765,0,0,1-4.636,1.566H50.182l-.992,6.483-.671.576H43.91l-.5-.581m7.284-9.974h.785a2.048,2.048,0,0,0,1.546-.611,3.1,3.1,0,0,0,.544-3.45,1.709,1.709,0,0,0-1.5-.6H51.4Z" style="fill:#25346b;fill-rule:evenodd"/><path d="M59.737,212.386l2.68-17.615.686-.587h6.756c2.041,0,3.522.477,4.439,1.512,1.909,2.078,1.191,6.533-1.292,8.645a6.757,6.757,0,0,1-4.653,1.566h-1.83l-.982,6.483-.666.576H60.242l-.5-.581m7.315-9.974H67.8a2.084,2.084,0,0,0,1.571-.611,3.144,3.144,0,0,0,.552-3.45,1.8,1.8,0,0,0-1.519-.6h-.641Z" style="fill:#25346b;fill-rule:evenodd"/><path d="M122.221,212.386l2.677-17.615.671-.587h6.767c2.026,0,3.5.477,4.43,1.512,1.914,2.078,1.181,6.533-1.3,8.645a6.773,6.773,0,0,1-4.646,1.566H128.98l-1,6.483-.666.576h-4.6l-.492-.581m7.284-9.974h.785a2.139,2.139,0,0,0,1.566-.611c.825-.841,1.131-2.655.52-3.45a1.738,1.738,0,0,0-1.492-.6h-.656Z" style="fill:#25346b;fill-rule:evenodd"/><path d="M80.208,196.5c3.5-3.55,9.841-3.55,12.275.02,2.749,4.087,1.116,10.849-2.177,14.125-3.57,3.524-9.889,3.524-12.23-.025-2.692-4.1-1.139-10.788,2.133-14.119m2.612,11.147c.54,1.84,2.57,1.84,3.682,0a12.53,12.53,0,0,0,1.248-8.164c-.582-1.829-2.593-1.829-3.707,0A12.2,12.2,0,0,0,82.82,207.647Z" style="fill:#25346b;fill-rule:evenodd"/><path d="M135.687,212.231l7.895-17.67.616-.388H150l.467.388,2.249,17.68-.681.726H147.4l-.49-.447-.166-2.436h-4.42l-.942,2.436-.651.447h-4.611l-.432-.735m8.235-6.279h2.531l-.214-3.9a26.5,26.5,0,0,1,.015-2.844,25.972,25.972,0,0,1-.91,2.844Z" style="fill:#25346b;fill-rule:evenodd"/><polyline points="189.95 198.604 186.607 198.604 186.117 198.022 186.607 194.77 187.313 194.174 199.938 194.174 200.438 194.77 199.938 198.022 199.257 198.604 195.943 198.604 193.865 212.386 193.194 212.967 188.352 212.967 187.857 212.386 189.95 198.604" style="fill:#25346b;fill-rule:evenodd"/><path d="M202.566,246.252H28.179a17.277,17.277,0,0,1-17.244-17.227v-8.979H202.566v26.205" style="fill:#25346b;fill-rule:evenodd"/><path d="M0,0H185.5a28.093,28.093,0,0,1,28,27.991V257.185H28A28.032,28.032,0,0,1,0,229.2V0M185.5.626H.626V229.2A27.465,27.465,0,0,0,28,256.568H212.854V27.991A27.474,27.474,0,0,0,185.5.626Z" style="fill:#25346b;fill-rule:evenodd"/></svg>
